<svg width="16" height="16" viewBox="0 0 16 16" fill="none" xmlns="http://www.w3.org/2000/svg">
<path fill-rule="evenodd" clip-rule="evenodd" d="M8 16C12.4183 16 16 12.4183 16 8C16 3.58172 12.4183 0 8 0C3.58172 0 0 3.58172 0 8C0 12.4183 3.58172 16 8 16ZM8.00046 14.1181C4.62178 14.1181 1.88281 11.3791 1.88281 8.00046C1.88281 4.62178 4.62178 1.88281 8.00046 1.88281C11.3791 1.88281 14.1181 4.62178 14.1181 8.00046C14.1181 11.3791 11.3791 14.1181 8.00046 14.1181ZM10.8228 8.00029C10.8228 6.44057 9.55846 5.17676 7.99931 5.17676C6.44016 5.17676 5.17578 6.44057 5.17578 8.00029C5.17578 9.55944 6.44016 10.8238 7.99931 10.8238C9.55846 10.8238 10.8228 9.55944 10.8228 8.00029Z" fill="black" fill-opacity="0.9"/>
</svg>
