<svg width="21" height="20" viewBox="0 0 21 20" fill="none" xmlns="http://www.w3.org/2000/svg">
<path d="M15.208 6.25049C15.208 8.66673 13.2493 10.6255 10.833 10.6255C8.41676 10.6255 6.45801 8.66673 6.45801 6.25049C6.45801 3.83424 8.41676 1.87549 10.833 1.87549C13.2493 1.87549 15.208 3.83424 15.208 6.25049ZM13.958 6.25049C13.958 4.5246 12.5589 3.12549 10.833 3.12549C9.10712 3.12549 7.70801 4.5246 7.70801 6.25049C7.70801 7.97638 9.10712 9.37549 10.833 9.37549C12.5589 9.37549 13.958 7.97638 13.958 6.25049Z" fill="black" fill-opacity="0.9"/>
<path d="M18.2869 13.5665C18.7042 13.7658 18.958 14.1938 18.958 14.6563V17.5005C18.958 17.8457 18.6782 18.1255 18.333 18.1255H3.33301C2.98783 18.1255 2.70801 17.8457 2.70801 17.5005V14.6563C2.70801 14.1938 2.96178 13.7658 3.37909 13.5665C5.64476 12.4843 8.16614 11.8755 10.833 11.8755C13.4999 11.8755 16.0213 12.4843 18.2869 13.5665ZM10.833 13.1255C8.37476 13.1255 6.05094 13.6826 3.95801 14.6753V16.8755H17.708V14.6753C15.6151 13.6826 13.2913 13.1255 10.833 13.1255Z" fill="black" fill-opacity="0.9"/>
</svg>
